<svg version="1.1" id="Layer_1" xmlns="http://www.w3.org/2000/svg" xmlns:xlink="http://www.w3.org/1999/xlink" x="0px" y="0px"
	 width="100%" viewBox="0 0 484 484" enable-background="new 0 0 484 484" xml:space="preserve">
<path fill="#FFFEFE" opacity="1.000000" stroke="none" 
	d="
M335.000000,485.000000 
	C223.333359,485.000000 112.166718,485.000000 1.000060,485.000000 
	C1.000040,323.666718 1.000040,162.333466 1.000020,1.000146 
	C162.333237,1.000098 323.666473,1.000098 484.999756,1.000049 
	C484.999847,162.333191 484.999847,323.666382 484.999939,484.999786 
	C435.166656,485.000000 385.333344,485.000000 335.000000,485.000000 
M340.248108,388.050385 
	C340.248108,388.050385 340.268341,388.221558 339.570953,388.148895 
	C336.788605,390.090729 336.723267,390.462128 338.933502,392.668304 
	C338.912659,393.110779 338.891815,393.553253 338.360229,394.049713 
	C338.186096,394.232971 338.011963,394.416199 337.837799,394.599396 
	C338.341553,394.615906 338.845337,394.632416 339.375702,394.673737 
	C339.375702,394.673737 339.373993,394.630280 339.175690,395.456604 
	C339.037537,397.198578 338.899353,398.940552 338.654999,402.021118 
	C342.527466,400.660645 345.538361,399.602875 348.549255,398.545074 
	C348.457428,397.981934 348.365631,397.418793 348.273804,396.855652 
	C350.979614,397.824921 353.685425,398.794220 356.558075,399.823273 
	C359.978546,400.050537 363.776611,400.302917 367.762787,400.567780 
	C366.436615,396.521729 364.875336,392.848724 370.283600,391.232910 
	C370.283600,391.232910 370.247864,391.560730 370.097168,392.221466 
	C370.384399,393.329742 370.326630,395.046173 371.019592,395.439270 
	C373.770599,396.999969 376.756104,398.147278 379.967682,399.588165 
	C380.752747,395.848694 382.709259,393.323212 386.996094,393.995422 
	C386.996094,393.995422 387.025574,393.959167 386.929230,394.673035 
	C385.544098,397.450378 386.290344,399.359711 389.019501,400.361053 
	C391.803131,399.701202 392.709106,394.592743 397.127136,397.572601 
	C395.991791,398.578583 395.161591,399.314178 393.784149,400.534698 
	C400.862640,398.987030 400.862640,398.987030 400.605133,394.681183 
	C402.612885,394.961670 404.601044,395.239410 406.589172,395.517151 
	C406.354309,395.871765 406.119446,396.226379 405.884613,396.580994 
	C407.256958,397.719849 408.629303,398.858704 410.108246,400.277252 
	C410.194183,400.327240 410.280121,400.377228 410.366028,400.427216 
	C410.243195,400.285370 410.120361,400.143524 409.996521,399.226990 
	C411.003418,397.479034 412.010284,395.731079 413.022858,393.963928 
	C413.022858,393.963928 413.043732,393.961365 413.064301,394.318390 
	C413.345886,394.403046 413.627502,394.487732 414.593964,394.370819 
	C414.809845,394.270630 415.025696,394.170471 415.937164,393.861328 
	C415.829071,391.550690 415.720978,389.240051 415.433716,386.275818 
	C415.474243,385.828247 415.514801,385.380707 415.842712,384.607544 
	C415.730469,384.087708 415.618256,383.567902 415.358643,382.370575 
	C415.351196,381.909332 415.343781,381.448120 415.759399,380.504242 
	C416.039673,379.501465 416.319977,378.498718 416.762390,376.915894 
	C414.571533,377.472076 413.019836,377.865997 410.745911,378.406738 
	C409.521912,378.391418 408.297882,378.376099 407.048340,377.576019 
	C407.899261,375.563690 408.750153,373.551361 409.675629,371.362671 
	C411.473206,372.160706 412.916229,372.801361 414.515900,373.511536 
	C415.701477,369.620789 414.091309,368.131470 410.686401,369.378510 
	C407.860809,370.413330 404.271912,371.772278 402.970398,374.084686 
	C399.748474,379.809204 397.594910,376.254669 394.720154,373.438812 
	C393.813446,373.625885 392.906708,373.812958 391.257568,374.021820 
	C390.062256,374.928650 388.866974,375.835480 387.559601,376.827332 
	C383.935822,376.247345 380.168610,375.472473 376.364471,375.182373 
	C375.615021,375.125244 374.723022,376.937469 373.141876,377.862549 
	C370.818756,378.088379 368.495636,378.314209 366.176819,378.525360 
	C366.176819,378.525360 366.192017,378.562653 366.104950,377.771606 
	C366.241394,376.357056 366.377838,374.942505 366.434113,374.359161 
	C363.825195,373.626862 361.632080,373.011292 359.109589,372.303253 
	C358.981537,372.464020 358.289337,373.333008 357.224487,374.011597 
	C357.224487,374.011597 357.032715,373.639618 357.025391,372.909119 
	C356.913483,371.783569 356.801575,370.657990 356.736725,370.005859 
	C354.081940,369.879883 351.790588,369.771179 349.499237,369.662445 
	C349.351166,369.905365 349.203094,370.148254 349.055023,370.391144 
	C351.045166,371.598206 353.035309,372.805267 355.017944,374.674622 
	C354.970734,375.112610 354.923523,375.550629 354.204163,376.078705 
	C353.460693,377.078735 352.717194,378.078766 351.325745,378.870697 
	C350.873413,378.855530 350.421112,378.840393 349.810211,378.108917 
	C348.798676,377.740295 347.813171,377.181213 346.770721,377.038605 
	C343.573517,376.601349 340.354523,376.323792 337.010406,375.349548 
	C336.997894,374.917389 336.985382,374.485260 337.520203,373.457001 
	C339.156403,373.296692 340.910400,373.440979 342.387756,372.869843 
	C343.386688,372.483643 343.996246,371.090271 344.779968,370.147400 
	C344.399780,369.508087 344.019592,368.868774 343.639404,368.229462 
	C339.843994,373.214233 335.639893,370.142334 331.488068,369.937195 
	C332.645142,371.178680 333.802246,372.420166 334.675903,374.394714 
	C334.675903,376.461121 334.675903,378.527527 334.675903,380.671204 
	C336.421051,380.847260 337.704254,380.976685 338.999634,381.899841 
	C339.830994,382.963409 340.662384,384.026978 341.345001,385.767273 
	C341.149933,386.185181 340.954865,386.603088 340.387878,387.316345 
	C340.172668,387.588745 340.118011,387.890320 340.248108,388.050385 
M94.085144,391.484772 
	C94.227982,391.760010 94.449623,391.936035 95.224838,392.451019 
	C96.236992,393.166199 97.249146,393.881348 98.261299,394.596527 
	C98.491844,394.325928 98.722397,394.055359 98.952950,393.784760 
	C97.578987,391.641022 96.205032,389.497253 95.378159,388.207123 
	C96.561493,384.621155 97.476173,381.849365 98.390846,379.077545 
	C97.844841,378.889313 97.298828,378.701111 96.752823,378.512878 
	C95.832542,380.819763 94.912262,383.126678 93.770561,385.988586 
	C91.628845,383.294067 89.829895,381.030792 87.810692,378.033325 
	C85.181252,378.186707 82.551811,378.340088 79.230553,378.630127 
	C78.761971,378.606567 78.293388,378.583008 77.915672,377.724304 
	C78.385460,375.944916 78.855255,374.165527 79.784996,370.644073 
	C77.055931,371.809265 75.258423,372.576721 72.892960,373.584564 
	C72.452019,375.906128 72.011078,378.227722 71.536621,380.725769 
	C74.932487,380.901794 77.327026,381.025940 80.259636,381.177979 
	C79.342636,383.704865 78.572990,385.825653 77.271095,387.742920 
	C74.884117,388.701447 74.227768,390.073975 76.162888,392.725586 
	C76.105865,393.149689 76.048843,393.573761 75.381157,394.092285 
	C75.228409,394.670624 75.075661,395.248932 74.922905,395.827271 
	C75.946373,395.995422 77.741676,396.534790 77.868240,396.271606 
	C78.698875,394.544403 79.169220,392.643982 79.744926,390.766968 
	C79.744926,390.766968 79.722672,390.738953 80.449608,390.912170 
	C82.242928,391.611450 84.036247,392.310730 86.076370,393.687836 
	C86.723343,393.813904 87.370316,393.939972 87.988907,394.703400 
	C88.395088,395.219147 88.801277,395.734863 89.207458,396.250610 
	C89.755272,395.562347 90.885925,394.726379 90.755104,394.210083 
	C89.979118,391.147858 91.791855,390.971039 94.007256,391.006317 
	C94.007256,391.006317 93.988174,391.060760 94.085144,391.484772 
M190.616318,378.361298 
	C189.754959,378.469299 188.893585,378.577332 187.516418,378.854401 
	C187.338776,378.888824 187.161148,378.923248 186.883560,378.281708 
	C186.029297,377.478210 185.175034,376.674713 184.596283,376.130341 
	C186.278946,374.802002 187.704407,373.676697 189.129868,372.551392 
	C188.848618,372.235901 188.567352,371.920410 188.286087,371.604919 
	C185.852051,371.749298 183.418030,371.893677 180.385956,371.711517 
	C179.519867,370.937714 178.653778,370.163910 177.024292,368.708008 
	C177.024292,371.836731 177.024292,373.930634 176.344589,376.017609 
	C175.891479,376.023254 175.438354,376.028900 174.414459,375.742615 
	C170.556122,372.297424 170.449966,376.792145 168.291763,378.553711 
	C167.832504,378.533173 167.373230,378.512634 166.474792,378.169952 
	C165.656769,378.361206 164.838745,378.552429 163.430008,379.016418 
	C163.768768,383.490692 164.042877,387.972443 164.555954,392.426636 
	C164.602356,392.829529 166.188202,393.055115 167.667175,393.668793 
	C167.111725,395.446014 166.556259,397.223236 165.594437,399.246521 
	C165.608383,399.592712 165.622314,399.938934 165.636261,400.285126 
	C165.757217,399.856354 165.878174,399.427551 166.864807,398.989197 
	C172.029175,399.409210 177.649567,401.451904 180.949188,395.077881 
	C180.949188,395.077881 181.005188,395.105286 181.014450,395.801697 
	C181.725113,397.329712 182.435776,398.857727 183.359497,400.843872 
	C184.474289,398.795746 185.237762,397.393097 186.511383,395.677063 
	C188.058289,395.689514 189.629684,395.866302 191.141129,395.640961 
	C191.833908,395.537628 192.408829,394.643829 193.142609,393.570740 
	C193.195969,393.396027 193.249344,393.221344 193.740295,392.428345 
	C193.985672,390.427490 194.231064,388.426636 194.522873,386.047211 
	C198.892471,389.827423 198.803955,389.781525 201.222183,385.117950 
	C201.675262,384.244171 203.152451,383.901428 204.157043,383.313629 
	C203.986694,384.189911 203.641800,385.073364 203.677628,385.941132 
	C203.802246,388.958282 204.058884,391.970001 204.265305,394.983765 
	C204.857376,394.982758 205.449448,394.981720 206.041519,394.980713 
	C206.369232,394.301056 206.915268,393.644043 206.988510,392.937958 
	C207.398529,388.984344 207.694382,385.018829 208.754913,380.878937 
	C209.495605,380.936462 210.236282,380.993958 211.076035,381.665588 
	C211.686035,382.119965 212.296051,382.574371 213.075790,383.898773 
	C213.027695,386.260712 212.979599,388.622681 212.356064,391.082703 
	C212.048569,391.402649 211.741074,391.722595 211.433563,392.042542 
	C211.929245,392.367523 212.424927,392.692505 213.245743,393.609558 
	C213.813919,393.956329 214.382080,394.303101 215.085831,395.173492 
	C216.414902,395.092804 217.743988,395.012085 219.866653,395.053131 
	C221.836609,394.661224 223.806564,394.269318 226.350372,394.210449 
	C227.775070,394.374542 229.199768,394.538605 231.008575,394.528381 
	C231.292053,394.504303 231.570114,394.532867 232.260620,395.281586 
	C233.868515,395.102570 235.476410,394.923584 237.698608,394.638428 
	C238.111694,394.676208 238.524780,394.713989 239.033585,395.415680 
	C239.443451,395.771393 239.853302,396.127075 240.263153,396.482788 
	C240.501923,395.638672 240.740707,394.794525 241.175735,393.392395 
	C241.532486,392.924805 241.889236,392.457214 242.648895,391.595459 
	C242.697708,391.229462 242.746506,390.863464 242.642487,389.805359 
	C242.734543,388.869446 242.826584,387.933533 243.598129,386.904724 
	C244.235794,384.669373 244.873459,382.434052 245.511124,380.198700 
	C245.128906,380.111694 244.746689,380.024719 244.364456,379.937744 
	C243.710861,380.400543 243.057281,380.863373 242.080841,380.730103 
	C240.384705,380.001312 238.732605,378.820129 236.982132,378.649811 
	C234.360199,378.394653 231.669174,378.849670 228.257141,378.927368 
	C227.310654,379.396118 226.364166,379.864899 224.872345,379.698334 
	C223.012344,379.423462 221.152344,379.148590 219.292328,378.873688 
	C219.231049,379.311279 219.169769,379.748871 219.108490,380.186432 
	C220.065552,380.481293 221.022614,380.776154 221.991287,381.707977 
	C222.288055,382.815369 222.584824,383.922760 222.995468,385.814636 
	C222.954956,386.867920 222.914444,387.921173 222.206238,389.074493 
	C218.066238,390.882050 217.782578,386.923737 216.017624,384.198486 
	C215.492203,378.559326 214.002335,377.718018 205.881592,377.845795 
	C204.917648,375.641418 202.372849,373.497253 201.296448,375.853882 
	C198.973984,380.938568 195.130997,378.463715 191.422974,379.009949 
	C191.422974,379.009949 190.998596,378.792938 190.616318,378.361298 
M296.573273,386.933075 
	C297.677490,386.971436 298.781738,387.009796 300.538544,387.325684 
	C301.705536,387.503967 302.872559,387.682251 303.956146,388.530426 
	C303.301422,389.649292 302.646698,390.768127 301.370880,392.020660 
	C300.784454,392.376801 300.198029,392.732941 298.697510,393.644165 
	C303.583649,394.248962 307.594116,396.122986 310.654144,392.225769 
	C312.573364,389.781525 311.300629,381.424835 308.851593,378.548859 
	C308.567932,378.599426 308.284271,378.650024 307.208221,378.705811 
	C306.158295,378.601715 305.108337,378.497620 303.782684,377.780151 
	C301.758911,377.070892 299.735168,376.361633 297.295715,375.506683 
	C296.848389,376.721558 296.369324,378.022583 295.104248,379.084747 
	C292.782013,380.757294 292.045288,385.997742 294.011932,387.470459 
	C294.285034,387.674957 295.154480,387.083130 296.573273,386.933075 
M127.404640,382.951477 
	C127.123299,382.799805 126.655067,382.705292 126.588631,382.487946 
	C125.577354,379.179718 118.658356,376.044495 115.657791,377.665588 
	C115.295525,377.861359 115.352646,378.833313 115.484795,380.159882 
	C115.956253,383.098053 116.526390,386.024567 116.874207,388.977295 
	C117.309494,392.672577 119.150719,394.672058 122.976791,394.724396 
	C126.585190,394.773773 129.087173,393.330994 129.818848,389.640594 
	C130.513367,386.137512 131.038239,382.600800 131.654404,378.980713 
	C128.141296,379.376038 128.141296,379.376038 127.404640,382.951477 
M240.096451,220.546066 
	C237.819122,221.019485 235.458130,221.251587 233.278717,222.007385 
	C222.831131,225.630432 215.133591,232.249771 213.272720,243.526443 
	C211.424561,254.726334 216.437515,263.260834 225.813828,269.248993 
	C237.130829,276.476593 252.970352,276.000641 263.988525,268.270630 
	C278.783417,257.891022 279.243652,238.160706 264.877686,227.168274 
	C257.831085,221.776398 249.753677,219.726227 240.096451,220.546066 
M163.847916,177.224472 
	C155.581635,178.647156 148.162796,181.828415 142.744263,188.437683 
	C137.241135,195.150177 134.702286,202.780869 138.573975,211.130417 
	C142.083847,218.699738 148.941620,221.102295 156.750259,220.907700 
	C164.531158,220.713776 171.305557,217.667831 176.945969,212.338867 
	C178.856186,210.534134 180.682556,208.473816 181.969131,206.202774 
	C190.746307,190.709305 182.746170,177.338516 163.847916,177.224472 
M341.496246,296.844818 
	C337.833496,296.870575 334.148895,297.158203 330.513672,296.854553 
	C326.142548,296.489380 324.844818,297.962708 324.958191,302.453247 
	C325.420258,320.756195 325.451752,339.069885 325.671997,357.379272 
	C325.687134,358.637665 325.949005,359.893127 326.064209,360.877228 
	C334.961517,360.877228 343.545532,361.790192 351.852081,360.661438 
	C364.052094,359.003571 372.380829,351.605469 375.904114,339.588287 
	C378.140381,331.960907 378.291016,324.175812 376.180786,316.414978 
	C373.447205,306.361633 367.183655,299.824097 356.886139,297.868683 
	C352.192566,296.977448 347.296722,297.151367 341.496246,296.844818 
M264.033752,180.337967 
	C268.680389,169.535950 266.005066,161.049088 256.143860,155.309036 
	C248.454285,150.833054 236.330048,151.771667 229.280136,157.388702 
	C219.399429,165.261185 219.305832,177.346375 229.012711,185.443710 
	C238.253403,193.152191 256.432709,192.201874 264.033752,180.337967 
M249.450760,341.871552 
	C247.413010,348.066986 245.375275,354.262451 243.313782,360.530060 
	C251.360397,362.221283 251.653397,362.026550 253.557846,355.333862 
	C254.646988,351.506348 255.683716,347.647339 257.101990,343.939423 
	C257.573425,342.706940 259.126831,341.078674 260.241364,341.034363 
	C267.023224,340.764648 273.821136,340.899750 280.580872,340.899750 
	C282.081848,345.955139 283.499878,350.546082 284.804718,355.169006 
	C286.795410,362.221558 287.492554,362.611664 295.276245,360.199951 
	C294.860168,358.523529 294.546021,356.779572 293.995697,355.113617 
	C288.013153,337.004059 281.940369,318.924042 276.042816,300.786987 
	C275.177216,298.124847 274.308746,296.147614 271.066589,296.568756 
	C267.993011,296.968018 264.575623,295.781738 263.131042,300.450226 
	C258.911591,314.086151 254.251282,327.585663 249.450760,341.871552 
M176.171707,338.499939 
	C176.139908,344.827332 176.223114,351.158234 176.029205,357.480652 
	C175.927826,360.786346 177.212982,361.835327 180.446320,361.737915 
	C189.595886,361.462280 198.752884,361.410187 207.907486,361.332520 
	C214.300369,361.278290 214.679352,360.836517 213.109222,353.858734 
	C203.883408,353.858734 194.507507,353.858734 185.016754,353.858734 
	C185.016754,346.027466 185.016754,338.788757 185.016754,331.158752 
	C192.347458,331.158752 199.309128,331.213287 206.269135,331.130280 
	C208.832962,331.099701 212.194672,332.433380 212.099548,327.498840 
	C212.005005,322.594727 208.588211,324.017059 206.076080,323.973083 
	C198.981400,323.848785 191.883118,323.929626 184.783112,323.929626 
	C184.783112,317.000061 184.783112,310.769379 184.783112,304.378418 
	C193.285797,304.378418 201.409927,304.244446 209.525940,304.442566 
	C212.899185,304.524902 213.322906,302.627289 213.515503,300.101379 
	C213.749908,297.027161 211.992310,296.583160 209.448639,296.623138 
	C200.458923,296.764404 191.467148,296.774872 182.476105,296.829041 
	C180.395782,296.841583 178.315323,296.830933 176.168777,296.830933 
	C176.168777,310.886780 176.168777,324.193390 176.171707,338.499939 
M300.149872,130.145432 
	C297.914795,129.539688 295.703705,128.546844 293.439819,128.406754 
	C288.323639,128.090134 283.420380,128.919907 280.276367,133.636551 
	C277.381439,137.979523 278.016602,142.444321 280.182190,146.893188 
	C283.998566,154.733475 292.325317,158.985535 301.790833,157.885315 
	C307.659241,157.203201 311.893799,152.774109 311.898407,146.839203 
	C311.904480,138.981491 307.559021,133.889664 300.149872,130.145432 
M146.030350,355.922882 
	C144.473740,355.229858 142.934052,353.986908 141.357620,353.938416 
	C134.292526,353.721100 127.216980,353.843842 119.877876,353.843842 
	C119.877876,334.638824 119.877876,316.013153 119.877876,296.952362 
	C116.863770,296.952362 114.137901,296.952362 111.357880,296.952362 
	C111.208771,297.980957 111.031006,298.630981 111.032532,299.280609 
	C111.077896,318.595917 111.206085,337.911407 111.140739,357.226257 
	C111.129128,360.659515 112.591522,361.471619 115.640663,361.432770 
	C124.131065,361.324646 132.630402,361.205231 141.112595,361.492157 
	C144.868301,361.619202 146.415970,360.433502 146.030350,355.922882 
M209.580612,142.052719 
	C209.737717,133.473816 206.209488,129.277924 197.999420,128.280014 
	C190.185013,127.330200 180.331604,133.259735 177.538544,140.592834 
	C174.439545,148.729141 177.961426,156.141998 185.717926,157.808823 
	C195.815353,159.978699 206.931412,152.942398 209.580612,142.052719 
M253.895905,129.314911 
	C254.930634,128.098846 256.339355,127.041382 256.934204,125.638756 
	C259.281921,120.102737 257.897980,114.885635 253.438965,111.366348 
	C248.550201,107.507896 240.520325,107.408287 235.251495,111.140755 
	C228.292068,116.070831 228.219406,125.056572 235.098831,130.025833 
	C240.128708,133.659134 247.147278,133.563751 253.895905,129.314911 
M342.970917,218.611908 
	C349.168030,214.749405 352.219971,209.327621 351.628662,201.882889 
	C350.395050,186.351120 330.080963,172.889847 315.331848,177.915680 
	C305.360168,181.313583 300.871399,189.218506 303.138763,199.388306 
	C306.725830,215.477432 327.211823,225.713531 342.970917,218.611908 
M264.579254,98.005447 
	C263.963531,100.016014 262.569244,102.151306 262.867859,104.015404 
	C264.113739,111.792839 274.180817,117.160995 281.387939,113.999870 
	C282.845703,113.360489 284.228058,111.729614 284.878510,110.224525 
	C286.761780,105.866798 285.118622,100.716949 281.303009,97.774811 
	C275.821167,93.547874 270.424286,93.411774 264.579254,98.005447 
M202.557724,108.083145 
	C202.809402,113.006531 206.619781,114.348022 210.343460,115.073044 
	C215.235397,116.025551 221.093964,112.542282 223.533783,107.935623 
	C226.976547,101.435272 224.111374,95.311317 217.267136,94.592468 
	C210.906464,93.924416 202.045319,99.311249 202.557724,108.083145 
M239.272644,92.169052 
	C244.350845,95.211266 250.240753,94.019829 250.471085,89.637794 
	C250.577682,87.609756 249.077011,84.059883 247.663681,83.696854 
	C244.954010,83.000854 241.463470,83.460793 238.968781,84.745636 
	C237.980255,85.254753 238.781586,89.239120 239.272644,92.169052 
M286.575256,382.605652 
	C286.575256,386.536072 286.575256,390.466492 286.575256,394.396912 
	C287.476959,394.379395 288.378662,394.361877 289.280365,394.344360 
	C288.968262,389.614349 290.021820,384.059540 287.845123,380.455658 
	C286.482849,378.200134 280.257538,378.881775 274.997467,378.054016 
	C279.106415,383.708923 278.597504,390.241272 274.484222,393.960754 
	C276.592133,393.960754 278.229706,393.960754 280.225281,393.960754 
	C280.225281,389.539825 280.225281,385.428314 280.225281,380.589233 
	C282.530670,381.024384 284.371399,381.371857 286.575256,382.605652 
M262.735321,389.115509 
	C262.887909,390.854553 263.040527,392.593628 263.242462,394.894928 
	C264.347778,393.987915 264.789581,393.798523 264.797241,393.593018 
	C264.902008,390.774628 265.006317,387.953766 264.994141,385.134003 
	C264.968811,379.270325 263.774414,378.172424 257.853607,378.561890 
	C256.262146,378.666565 254.684418,378.980652 253.545380,379.137360 
	C253.545380,384.488861 253.545380,389.384338 253.545380,394.279846 
	C253.996323,394.271393 254.447281,394.262939 254.898224,394.254486 
	C254.898224,389.911072 254.898224,385.567627 254.898224,381.362244 
	C262.583557,380.159943 262.755707,380.327423 262.735321,389.115509 
M149.505173,386.569916 
	C149.505173,388.189026 149.505173,389.808105 149.505173,391.618683 
	C146.380478,391.932983 143.680969,392.204529 140.981461,392.476044 
	C141.025208,392.963226 141.068954,393.450378 141.112701,393.937561 
	C145.006653,393.937561 148.900604,393.937561 152.601837,393.937561 
	C152.384171,390.891022 152.076447,388.012909 151.992844,385.128296 
	C151.795303,378.312469 147.970703,376.385834 141.270035,380.208160 
	C144.226166,381.931427 150.545120,378.643372 149.505173,386.569916 
M323.417358,387.075989 
	C324.306702,384.485382 325.196014,381.894745 326.220703,378.909821 
	C322.897491,378.722382 320.167969,378.568451 317.419800,378.413452 
	C317.114410,376.649200 316.851654,375.131073 316.588867,373.612946 
	C315.997345,373.587708 315.405853,373.562469 314.814331,373.537231 
	C314.644531,375.867126 314.474701,378.197052 314.270447,380.999237 
	C317.399475,380.999237 319.829987,380.999237 322.706482,380.999237 
	C321.299255,385.664795 320.033783,389.860291 318.768341,394.055786 
	C319.336060,394.254700 319.903748,394.453613 320.471466,394.652557 
	C321.370178,392.372711 322.268921,390.092896 323.417358,387.075989 
M104.804306,378.484253 
	C103.632492,378.853333 102.460670,379.222443 100.777328,379.752625 
	C101.759674,380.482758 101.872223,380.630768 102.007011,380.654999 
	C102.486107,380.741150 102.996964,380.912231 103.452896,380.825531 
	C108.701881,379.827240 110.247589,382.298401 109.785149,387.161377 
	C109.560631,389.522522 109.997993,391.946625 110.135712,394.342224 
	C110.787888,394.332855 111.440056,394.323517 112.092224,394.314148 
	C112.092224,391.513428 111.911270,388.698303 112.132271,385.915100 
	C112.517494,381.063904 110.821465,378.255127 104.804306,378.484253 
M271.122101,394.110626 
	C271.359589,388.947845 271.597076,383.785065 271.834564,378.622284 
	C271.102417,378.635010 270.370239,378.647705 269.638092,378.660431 
	C269.145844,383.902832 267.641083,389.139587 271.122101,394.110626 
M137.299789,387.337982 
	C137.494781,384.490601 137.689789,381.643219 137.884781,378.795837 
	C137.181686,378.784790 136.478592,378.773743 135.775513,378.762695 
	C135.147064,381.695251 133.923111,384.620300 137.299789,387.337982 
M368.493683,369.026642 
	C367.812012,369.342102 367.130341,369.657593 366.448669,369.973053 
	C366.561981,370.324463 366.675262,370.675873 366.788544,371.027283 
	C368.000183,370.738800 369.211823,370.450317 370.423462,370.161865 
	C370.016754,369.792694 369.610046,369.423553 368.493683,369.026642 
M372.850159,399.411255 
	C372.151855,399.084259 371.453583,398.757233 370.755310,398.430206 
	C370.679626,398.848328 370.603912,399.266479 370.528229,399.684601 
	C371.270050,399.809235 372.011841,399.933838 372.850159,399.411255 
M85.420258,396.481873 
	C85.420258,396.481873 85.521950,396.422150 85.420258,396.481873 
M352.482391,399.590851 
	C352.482391,399.590851 352.413361,399.476318 352.482391,399.590851 
M228.410248,377.482574 
	C228.410248,377.482574 228.523834,377.414551 228.410248,377.482574 
z"/>
<path fill="#A90736" opacity="1.000000" stroke="none" 
	d="
M240.524918,220.446671 
	C249.753677,219.726227 257.831085,221.776398 264.877686,227.168274 
	C279.243652,238.160706 278.783417,257.891022 263.988525,268.270630 
	C252.970352,276.000641 237.130829,276.476593 225.813828,269.248993 
	C216.437515,263.260834 211.424561,254.726334 213.272720,243.526443 
	C215.133591,232.249771 222.831131,225.630432 233.278717,222.007385 
	C235.458130,221.251587 237.819122,221.019485 240.524918,220.446671 
z"/>
<path fill="#F2832D" opacity="1.000000" stroke="none" 
	d="
M164.281204,177.204605 
	C182.746170,177.338516 190.746307,190.709305 181.969131,206.202774 
	C180.682556,208.473816 178.856186,210.534134 176.945969,212.338867 
	C171.305557,217.667831 164.531158,220.713776 156.750259,220.907700 
	C148.941620,221.102295 142.083847,218.699738 138.573975,211.130417 
	C134.702286,202.780869 137.241135,195.150177 142.744263,188.437683 
	C148.162796,181.828415 155.581635,178.647156 164.281204,177.204605 
z"/>
<path fill="#686868" opacity="1.000000" stroke="none" 
	d="
M341.994446,296.843475 
	C347.296722,297.151367 352.192566,296.977448 356.886139,297.868683 
	C367.183655,299.824097 373.447205,306.361633 376.180786,316.414978 
	C378.291016,324.175812 378.140381,331.960907 375.904114,339.588287 
	C372.380829,351.605469 364.052094,359.003571 351.852081,360.661438 
	C343.545532,361.790192 334.961517,360.877228 326.064209,360.877228 
	C325.949005,359.893127 325.687134,358.637665 325.671997,357.379272 
	C325.451752,339.069885 325.420258,320.756195 324.958191,302.453247 
	C324.844818,297.962708 326.142548,296.489380 330.513672,296.854553 
	C334.148895,297.158203 337.833496,296.870575 341.994446,296.843475 
M369.041443,328.369110 
	C369.279480,306.516571 357.116577,301.700134 334.326050,304.728302 
	C334.326050,321.085114 334.326050,337.441925 334.326050,353.961975 
	C339.510284,353.961975 344.351532,354.420929 349.070801,353.857819 
	C356.756775,352.940735 363.038208,349.263367 365.979736,341.745789 
	C367.525360,337.795746 368.049438,333.445984 369.041443,328.369110 
z"/>
<path fill="#F2822D" opacity="1.000000" stroke="none" 
	d="
M263.846558,180.658524 
	C256.432709,192.201874 238.253403,193.152191 229.012711,185.443710 
	C219.305832,177.346375 219.399429,165.261185 229.280136,157.388702 
	C236.330048,151.771667 248.454285,150.833054 256.143860,155.309036 
	C266.005066,161.049088 268.680389,169.535950 263.846558,180.658524 
z"/>
<path fill="#686969" opacity="1.000000" stroke="none" 
	d="
M249.607239,341.505096 
	C254.251282,327.585663 258.911591,314.086151 263.131042,300.450226 
	C264.575623,295.781738 267.993011,296.968018 271.066589,296.568756 
	C274.308746,296.147614 275.177216,298.124847 276.042816,300.786987 
	C281.940369,318.924042 288.013153,337.004059 293.995697,355.113617 
	C294.546021,356.779572 294.860168,358.523529 295.276245,360.199951 
	C287.492554,362.611664 286.795410,362.221558 284.804718,355.169006 
	C283.499878,350.546082 282.081848,345.955139 280.580872,340.899750 
	C273.821136,340.899750 267.023224,340.764648 260.241364,341.034363 
	C259.126831,341.078674 257.573425,342.706940 257.101990,343.939423 
	C255.683716,347.647339 254.646988,351.506348 253.557846,355.333862 
	C251.653397,362.026550 251.360397,362.221283 243.313782,360.530060 
	C245.375275,354.262451 247.413010,348.066986 249.607239,341.505096 
M273.707489,319.778931 
	C272.259766,315.519104 270.812042,311.259277 268.908295,305.657562 
	C265.781860,315.670197 263.107727,324.234253 260.284668,333.275269 
	C266.559723,333.275269 272.044525,333.275269 277.853607,333.275269 
	C276.458893,328.715027 275.208008,324.625061 273.707489,319.778931 
z"/>
<path fill="#686868" opacity="1.000000" stroke="none" 
	d="
M176.170242,337.999939 
	C176.168777,324.193390 176.168777,310.886780 176.168777,296.830933 
	C178.315323,296.830933 180.395782,296.841583 182.476105,296.829041 
	C191.467148,296.774872 200.458923,296.764404 209.448639,296.623138 
	C211.992310,296.583160 213.749908,297.027161 213.515503,300.101379 
	C213.322906,302.627289 212.899185,304.524902 209.525940,304.442566 
	C201.409927,304.244446 193.285797,304.378418 184.783112,304.378418 
	C184.783112,310.769379 184.783112,317.000061 184.783112,323.929626 
	C191.883118,323.929626 198.981400,323.848785 206.076080,323.973083 
	C208.588211,324.017059 212.005005,322.594727 212.099548,327.498840 
	C212.194672,332.433380 208.832962,331.099701 206.269135,331.130280 
	C199.309128,331.213287 192.347458,331.158752 185.016754,331.158752 
	C185.016754,338.788757 185.016754,346.027466 185.016754,353.858734 
	C194.507507,353.858734 203.883408,353.858734 213.109222,353.858734 
	C214.679352,360.836517 214.300369,361.278290 207.907486,361.332520 
	C198.752884,361.410187 189.595886,361.462280 180.446320,361.737915 
	C177.212982,361.835327 175.927826,360.786346 176.029205,357.480652 
	C176.223114,351.158234 176.139908,344.827332 176.170242,337.999939 
z"/>
<path fill="#F8B149" opacity="1.000000" stroke="none" 
	d="
M300.484619,130.329559 
	C307.559021,133.889664 311.904480,138.981491 311.898407,146.839203 
	C311.893799,152.774109 307.659241,157.203201 301.790833,157.885315 
	C292.325317,158.985535 283.998566,154.733475 280.182190,146.893188 
	C278.016602,142.444321 277.381439,137.979523 280.276367,133.636551 
	C283.420380,128.919907 288.323639,128.090134 293.439819,128.406754 
	C295.703705,128.546844 297.914795,129.539688 300.484619,130.329559 
z"/>
<path fill="#6C6C6C" opacity="1.000000" stroke="none" 
	d="
M146.018646,356.331360 
	C146.415970,360.433502 144.868301,361.619202 141.112595,361.492157 
	C132.630402,361.205231 124.131065,361.324646 115.640663,361.432770 
	C112.591522,361.471619 111.129128,360.659515 111.140739,357.226257 
	C111.206085,337.911407 111.077896,318.595917 111.032532,299.280609 
	C111.031006,298.630981 111.208771,297.980957 111.357880,296.952362 
	C114.137901,296.952362 116.863770,296.952362 119.877876,296.952362 
	C119.877876,316.013153 119.877876,334.638824 119.877876,353.843842 
	C127.216980,353.843842 134.292526,353.721100 141.357620,353.938416 
	C142.934052,353.986908 144.473740,355.229858 146.018646,356.331360 
z"/>
<path fill="#F8B149" opacity="1.000000" stroke="none" 
	d="
M209.483612,142.439804 
	C206.931412,152.942398 195.815353,159.978699 185.717926,157.808823 
	C177.961426,156.141998 174.439545,148.729141 177.538544,140.592834 
	C180.331604,133.259735 190.185013,127.330200 197.999420,128.280014 
	C206.209488,129.277924 209.737717,133.473816 209.483612,142.439804 
z"/>
<path fill="#FAF0F6" opacity="1.000000" stroke="none" 
	d="
M410.001648,399.997559 
	C408.629303,398.858704 407.256958,397.719849 405.884613,396.580994 
	C406.119446,396.226379 406.354309,395.871765 406.589172,395.517151 
	C404.601044,395.239410 402.612885,394.961670 400.605133,394.681183 
	C400.862640,398.987030 400.862640,398.987030 393.784149,400.534698 
	C395.161591,399.314178 395.991791,398.578583 397.127136,397.572601 
	C392.709106,394.592743 391.803131,399.701202 389.019501,400.361053 
	C386.290344,399.359711 385.544098,397.450378 387.385010,394.412231 
	C391.781219,392.547241 389.060547,389.379303 389.604736,386.551025 
	C389.707397,384.754822 389.734406,383.367645 389.903870,381.770264 
	C390.089081,381.396271 390.131866,381.232513 390.598877,381.030090 
	C395.951904,380.005798 397.669128,382.173401 397.069519,386.928802 
	C396.821075,388.899170 397.028290,390.927002 397.028290,393.470978 
	C399.914124,390.277924 401.075897,381.821655 398.528351,380.506409 
	C395.953064,379.176849 392.247040,380.037323 388.806763,379.674744 
	C387.847321,379.326935 387.117462,379.242828 386.387604,379.158722 
	C386.562317,379.822937 386.737030,380.487183 386.947052,381.567566 
	C387.077637,383.649139 387.172943,385.314606 387.176605,387.409393 
	C387.069122,389.885010 387.053284,391.931244 387.037445,393.977509 
	C382.709259,393.323212 380.752747,395.848694 379.967682,399.588165 
	C376.756104,398.147278 373.770599,396.999969 371.019592,395.439270 
	C370.326630,395.046173 370.384399,393.329742 370.429382,392.147644 
	C373.386047,395.454041 377.181091,395.684631 380.017426,393.574768 
	C383.647797,390.874298 383.552063,386.483276 382.300720,382.237457 
	C381.027954,377.919006 377.734131,378.163879 374.234619,378.321411 
	C374.123016,378.175995 373.896759,377.887543 373.896759,377.887543 
	C374.723022,376.937469 375.615021,375.125244 376.364471,375.182373 
	C380.168610,375.472473 383.935822,376.247345 387.559601,376.827332 
	C388.866974,375.835480 390.062256,374.928650 391.528961,374.295654 
	C392.169312,375.037811 392.538239,375.506165 392.907227,375.974487 
	C393.604492,375.316620 394.301727,374.658691 394.999512,374.000397 
	C395.000000,374.000000 395.000153,373.999268 395.000153,373.999268 
	C397.594910,376.254669 399.748474,379.809204 402.970398,374.084686 
	C404.271912,371.772278 407.860809,370.413330 410.686401,369.378510 
	C414.091309,368.131470 415.701477,369.620789 414.515900,373.511536 
	C412.916229,372.801361 411.473206,372.160706 409.675629,371.362671 
	C408.750153,373.551361 407.899261,375.563690 406.763397,378.131531 
	C405.477814,379.008423 404.477173,379.329773 403.476532,379.651154 
	C405.071533,380.809814 406.346039,380.972412 407.564697,380.780457 
	C411.839417,380.107056 413.607025,381.719055 413.097107,386.118988 
	C412.796997,388.708679 413.026123,391.359711 413.017212,393.983154 
	C412.010284,395.731079 411.003418,397.479034 409.998260,399.613495 
	C410.000000,400.000000 410.001648,399.997559 410.001648,399.997559 
z"/>
<path fill="#F7B249" opacity="1.000000" stroke="none" 
	d="
M253.598083,129.546722 
	C247.147278,133.563751 240.128708,133.659134 235.098831,130.025833 
	C228.219406,125.056572 228.292068,116.070831 235.251495,111.140755 
	C240.520325,107.408287 248.550201,107.507896 253.438965,111.366348 
	C257.897980,114.885635 259.281921,120.102737 256.934204,125.638756 
	C256.339355,127.041382 254.930634,128.098846 253.598083,129.546722 
z"/>
<path fill="#FAF0F6" opacity="1.000000" stroke="none" 
	d="
M337.143982,375.984131 
	C340.354523,376.323792 343.573517,376.601349 346.770721,377.038605 
	C347.813171,377.181213 348.798676,377.740295 349.748657,378.923828 
	C349.687134,384.521881 349.687134,389.305054 349.687134,394.088226 
	C350.449341,394.101837 351.211517,394.115448 351.973724,394.129059 
	C351.973724,389.112305 351.973724,384.095551 351.973724,379.078796 
	C352.717194,378.078766 353.460693,377.078735 354.626282,376.453857 
	C354.382690,383.969238 360.663910,379.354004 363.144104,381.698792 
	C361.987244,385.690430 360.787842,389.828888 359.588440,393.967377 
	C360.317505,394.163300 361.046539,394.359253 361.775574,394.555206 
	C363.194183,389.361420 364.612793,384.167603 366.008331,378.990601 
	C365.985260,379.007385 365.939056,379.040833 366.041626,379.004150 
	C366.144165,378.967499 366.172516,378.540070 366.172516,378.540070 
	C368.495636,378.314209 370.818756,378.088379 373.519318,377.875061 
	C373.896759,377.887543 374.123016,378.175995 373.903931,378.469727 
	C367.609589,381.396606 370.585938,386.714722 370.057190,390.993164 
	C364.875336,392.848724 366.436615,396.521729 367.762787,400.567780 
	C363.776611,400.302917 359.978546,400.050537 356.558075,399.823273 
	C353.685425,398.794220 350.979614,397.824921 348.273804,396.855652 
	C348.365631,397.418793 348.457428,397.981934 348.549255,398.545074 
	C345.538361,399.602875 342.527466,400.660645 338.654999,402.021118 
	C338.899353,398.940552 339.037537,397.198578 339.557678,394.894165 
	C342.084290,389.396515 344.228912,384.461334 346.698303,378.778839 
	C343.609009,378.778839 341.593994,379.093628 339.758789,378.655396 
	C338.733032,378.410431 338.005768,376.915680 337.143982,375.984131 
M346.297791,394.430542 
	C346.010864,394.704376 345.723938,394.978210 345.437012,395.252075 
	C345.550629,395.370880 345.756836,395.599243 345.764618,395.592682 
	C346.067413,395.336945 346.352051,395.059784 346.297791,394.430542 
z"/>
<path fill="#E58F4E" opacity="1.000000" stroke="none" 
	d="
M342.634735,218.783478 
	C327.211823,225.713531 306.725830,215.477432 303.138763,199.388306 
	C300.871399,189.218506 305.360168,181.313583 315.331848,177.915680 
	C330.080963,172.889847 350.395050,186.351120 351.628662,201.882889 
	C352.219971,209.327621 349.168030,214.749405 342.634735,218.783478 
M348.612640,199.219635 
	C347.306000,196.645157 346.218262,193.928101 344.651672,191.522934 
	C339.946442,184.299210 327.010040,176.319244 319.637726,183.646225 
	C314.645691,179.864243 306.597656,183.216080 305.051392,189.608658 
	C303.328613,196.731140 308.812866,208.670364 315.004303,212.539612 
	C319.579132,215.398590 324.379303,216.890778 329.174957,218.705811 
	C331.141510,219.450104 333.716705,219.723877 335.686157,219.126877 
	C344.388092,216.489166 349.326416,209.078537 348.612640,199.219635 
z"/>
<path fill="#F8DD17" opacity="1.000000" stroke="none" 
	d="
M264.748871,97.683510 
	C270.424286,93.411774 275.821167,93.547874 281.303009,97.774811 
	C285.118622,100.716949 286.761780,105.866798 284.878510,110.224525 
	C284.228058,111.729614 282.845703,113.360489 281.387939,113.999870 
	C274.180817,117.160995 264.113739,111.792839 262.867859,104.015404 
	C262.569244,102.151306 263.963531,100.016014 264.748871,97.683510 
z"/>
<path fill="#F8DD17" opacity="1.000000" stroke="none" 
	d="
M202.525635,107.698196 
	C202.045319,99.311249 210.906464,93.924416 217.267136,94.592468 
	C224.111374,95.311317 226.976547,101.435272 223.533783,107.935623 
	C221.093964,112.542282 215.235397,116.025551 210.343460,115.073044 
	C206.619781,114.348022 202.809402,113.006531 202.525635,107.698196 
z"/>
<path fill="#F8EAF0" opacity="1.000000" stroke="none" 
	d="
M166.000809,399.000458 
	C166.556259,397.223236 167.111725,395.446014 167.316254,393.266785 
	C167.036880,392.539734 167.108414,392.214752 167.597458,391.958252 
	C169.103088,392.839203 170.191208,393.651611 171.291519,394.473114 
	C174.102448,386.151581 173.329102,384.223694 167.052795,383.590759 
	C168.204071,382.402374 169.512054,380.951630 170.645050,381.077362 
	C171.707123,381.195282 173.250168,382.887024 173.415604,384.051788 
	C173.884476,387.352814 173.756516,390.738617 173.863602,394.091034 
	C174.717758,394.027802 175.571915,393.964539 176.426086,393.901306 
	C175.868378,389.041656 175.310669,384.182037 175.186523,379.229034 
	C177.095688,379.097107 178.571289,379.058502 180.032898,379.484222 
	C180.342209,384.799377 180.665482,389.650208 180.974106,394.638794 
	C180.959457,394.776520 180.895599,395.046021 180.895599,395.046021 
	C177.649567,401.451904 172.029175,399.409210 166.432404,398.994598 
	C166.000000,399.000000 166.000809,399.000458 166.000809,399.000458 
z"/>
<path fill="#FBE3F0" opacity="1.000000" stroke="none" 
	d="
M208.029236,381.057404 
	C207.694382,385.018829 207.398529,388.984344 206.988510,392.937958 
	C206.915268,393.644043 206.369232,394.301056 206.041519,394.980713 
	C205.449448,394.981720 204.857376,394.982758 204.265305,394.983765 
	C204.058884,391.970001 203.802246,388.958282 203.677628,385.941132 
	C203.641800,385.073364 203.986694,384.189911 204.157043,383.313599 
	C203.152451,383.901428 201.675262,384.244171 201.222183,385.117950 
	C198.803955,389.781525 198.892471,389.827423 194.522873,386.047211 
	C194.231064,388.426636 193.985672,390.427490 193.439362,392.278595 
	C192.724960,387.768738 192.311493,383.408661 191.898026,379.048553 
	C195.130997,378.463715 198.973984,380.938568 201.296448,375.853882 
	C202.372849,373.497253 204.917648,375.641418 205.737854,378.326721 
	C204.975845,379.178650 204.357559,379.549622 203.739273,379.920624 
	C204.201736,380.274994 204.623260,380.837708 205.135574,380.938354 
	C206.071777,381.122314 207.061707,381.032837 208.029236,381.057404 
z"/>
<path fill="#F4DD26" opacity="1.000000" stroke="none" 
	d="
M239.020325,91.905121 
	C238.781586,89.239120 237.980255,85.254753 238.968781,84.745636 
	C241.463470,83.460793 244.954010,83.000854 247.663681,83.696854 
	C249.077011,84.059883 250.577682,87.609756 250.471085,89.637794 
	C250.240753,94.019829 244.350845,95.211266 239.020325,91.905121 
z"/>
<path fill="#973F5C" opacity="1.000000" stroke="none" 
	d="
M238.937866,394.751801 
	C238.524780,394.713989 238.111694,394.676208 237.094025,394.497131 
	C236.350281,393.641418 236.211090,392.927063 236.071899,392.212677 
	C243.064697,391.630432 239.644043,386.358826 239.666626,383.120056 
	C239.672958,382.213470 235.842087,381.280182 233.451706,380.216949 
	C232.817307,385.893829 232.330048,390.253937 231.842804,394.614014 
	C231.570114,394.532867 231.292053,394.504303 230.614899,394.222656 
	C230.082001,390.942474 229.942764,387.967987 229.861359,384.606262 
	C229.615295,382.480225 229.311417,380.741455 229.007523,379.002655 
	C231.669174,378.849670 234.360199,378.394653 236.982132,378.649811 
	C238.732605,378.820129 240.384705,380.001312 242.241791,381.433533 
	C242.574692,383.757172 242.746658,385.377380 242.918625,386.997620 
	C242.826584,387.933533 242.734543,388.869446 242.507294,390.343140 
	C242.330078,391.250488 242.288040,391.620056 242.246002,391.989624 
	C241.889236,392.457214 241.532486,392.924805 240.804916,393.739868 
	C239.935349,394.308838 239.436615,394.530304 238.937866,394.751801 
z"/>
<path fill="#9C3758" opacity="1.000000" stroke="none" 
	d="
M128.035385,383.024323 
	C128.141296,379.376038 128.141296,379.376038 131.654404,378.980713 
	C131.038239,382.600800 130.513367,386.137512 129.818848,389.640594 
	C129.087173,393.330994 126.585190,394.773773 122.976791,394.724396 
	C119.150719,394.672058 117.309494,392.672577 116.874207,388.977295 
	C116.526390,386.024567 115.956253,383.098053 115.723938,379.640015 
	C116.551918,379.187653 117.599716,379.125732 117.660736,379.342072 
	C118.578186,382.595154 119.292023,385.906006 120.224487,389.154266 
	C120.543617,390.265991 121.489677,392.183380 121.882652,392.118469 
	C123.627769,391.830200 126.143921,391.402557 126.765823,390.194061 
	C127.826782,388.132324 127.676727,385.447449 128.035385,383.024323 
z"/>
<path fill="#F9DEEC" opacity="1.000000" stroke="none" 
	d="
M127.720016,382.987915 
	C127.676727,385.447449 127.826782,388.132324 126.765823,390.194061 
	C126.143921,391.402557 123.627769,391.830200 121.882652,392.118469 
	C121.489677,392.183380 120.543617,390.265991 120.224487,389.154266 
	C119.292023,385.906006 118.578186,382.595154 117.660736,379.342072 
	C117.599716,379.125732 116.551918,379.187653 115.589233,379.282837 
	C115.352646,378.833313 115.295525,377.861359 115.657791,377.665588 
	C118.658356,376.044495 125.577354,379.179718 126.588631,382.487946 
	C126.655067,382.705292 127.123299,382.799805 127.720016,382.987915 
z"/>
<path fill="#922D4E" opacity="1.000000" stroke="none" 
	d="
M286.393677,382.162476 
	C284.371399,381.371857 282.530670,381.024384 280.225281,380.589233 
	C280.225281,385.428314 280.225281,389.539825 280.225281,393.960754 
	C278.229706,393.960754 276.592133,393.960754 274.484222,393.960754 
	C278.597504,390.241272 279.106415,383.708923 274.997467,378.054016 
	C280.257538,378.881775 286.482849,378.200134 287.845123,380.455658 
	C290.021820,384.059540 288.968262,389.614349 289.280365,394.344360 
	C288.378662,394.361877 287.476959,394.379395 286.575256,394.396912 
	C286.575256,390.466492 286.575256,386.536072 286.393677,382.162476 
z"/>
<path fill="#922D4E" opacity="1.000000" stroke="none" 
	d="
M304.039551,387.860535 
	C302.872559,387.682251 301.705536,387.503967 300.207489,386.735199 
	C299.876434,383.904846 299.876434,381.664948 299.876434,379.471680 
	C301.593292,379.029053 302.825836,378.711273 304.058411,378.393494 
	C305.108337,378.497620 306.158295,378.601715 307.845276,378.825317 
	C308.659943,378.915314 308.837494,378.885803 309.015076,378.856262 
	C311.300629,381.424835 312.573364,389.781525 310.654144,392.225769 
	C307.594116,396.122986 303.583649,394.248962 298.697510,393.644165 
	C300.198029,392.732941 300.784454,392.376801 302.115479,392.059631 
	C304.829559,391.658264 308.280487,391.582550 308.495148,390.710358 
	C309.181946,387.919647 309.230286,384.647705 308.337524,381.955322 
	C307.991058,380.910522 304.471405,380.917877 302.397278,380.445953 
	C302.031799,381.011414 301.666351,381.576904 301.300903,382.142365 
	C302.623444,383.799866 303.945984,385.457367 305.300232,387.154572 
	C305.152771,387.237183 304.596161,387.548859 304.039551,387.860535 
z"/>
<path fill="#922D4E" opacity="1.000000" stroke="none" 
	d="
M262.735474,388.666199 
	C262.755707,380.327423 262.583557,380.159943 254.898224,381.362244 
	C254.898224,385.567627 254.898224,389.911072 254.898224,394.254486 
	C254.447281,394.262939 253.996323,394.271393 253.545380,394.279846 
	C253.545380,389.384338 253.545380,384.488861 253.545380,379.137360 
	C254.684418,378.980652 256.262146,378.666565 257.853607,378.561890 
	C263.774414,378.172424 264.968811,379.270325 264.994141,385.134003 
	C265.006317,387.953766 264.902008,390.774628 264.797241,393.593018 
	C264.789581,393.798523 264.347778,393.987915 263.242462,394.894928 
	C263.040527,392.593628 262.887909,390.854553 262.735474,388.666199 
z"/>
<path fill="#922D4E" opacity="1.000000" stroke="none" 
	d="
M370.170410,391.113037 
	C370.585938,386.714722 367.609589,381.396606 374.015533,378.615112 
	C377.734131,378.163879 381.027954,377.919006 382.300720,382.237457 
	C383.552063,386.483276 383.647797,390.874298 380.017426,393.574768 
	C377.181091,395.684631 373.386047,395.454041 370.504730,391.817291 
	C370.247864,391.560730 370.283600,391.232910 370.170410,391.113037 
M373.017181,391.198761 
	C374.975464,391.391052 378.119659,392.393860 378.653564,391.612671 
	C379.895142,389.796021 380.117767,387.138611 380.307220,384.786011 
	C380.516266,382.190033 379.481995,380.277039 376.363617,380.363281 
	C373.548645,380.441193 372.018372,381.726379 372.148315,384.622284 
	C372.236420,386.585876 372.448395,388.543945 373.017181,391.198761 
z"/>
<path fill="#8B3D58" opacity="1.000000" stroke="none" 
	d="
M149.509521,386.095276 
	C150.545120,378.643372 144.226166,381.931427 141.270035,380.208160 
	C147.970703,376.385834 151.795303,378.312469 151.992844,385.128296 
	C152.076447,388.012909 152.384171,390.891022 152.601837,393.937561 
	C148.900604,393.937561 145.006653,393.937561 141.112701,393.937561 
	C141.068954,393.450378 141.025208,392.963226 140.981461,392.476044 
	C143.680969,392.204529 146.380478,391.932983 149.505173,391.618683 
	C149.505173,389.808105 149.505173,388.189026 149.509521,386.095276 
z"/>
<path fill="#922D4E" opacity="1.000000" stroke="none" 
	d="
M174.752945,379.322388 
	C175.310669,384.182037 175.868378,389.041656 176.426086,393.901306 
	C175.571915,393.964539 174.717758,394.027802 173.863602,394.091034 
	C173.756516,390.738617 173.884476,387.352814 173.415604,384.051788 
	C173.250168,382.887024 171.707123,381.195282 170.645050,381.077362 
	C169.512054,380.951630 168.204071,382.402374 166.986191,383.984131 
	C167.044678,385.863190 167.089432,386.923004 167.048248,388.236877 
	C167.009583,389.015167 167.056839,389.539429 167.058807,390.370117 
	C167.069016,391.080933 167.124481,391.485321 167.179962,391.889740 
	C167.108414,392.214752 167.036880,392.539734 167.012238,393.113892 
	C166.188202,393.055115 164.602356,392.829529 164.555954,392.426636 
	C164.042877,387.972443 163.768768,383.490692 164.091766,378.942749 
	C165.473663,378.743408 166.193817,378.617737 166.913971,378.492065 
	C167.373230,378.512634 167.832504,378.533173 169.010880,378.604126 
	C171.399963,378.866302 173.069931,379.078125 174.751846,379.292603 
	C174.763794,379.295319 174.752945,379.322388 174.752945,379.322388 
z"/>
<path fill="#9C3758" opacity="1.000000" stroke="none" 
	d="
M323.292480,387.444519 
	C322.268921,390.092896 321.370178,392.372711 320.471466,394.652557 
	C319.903748,394.453613 319.336060,394.254700 318.768341,394.055786 
	C320.033783,389.860291 321.299255,385.664795 322.706482,380.999237 
	C319.829987,380.999237 317.399475,380.999237 314.270447,380.999237 
	C314.474701,378.197052 314.644531,375.867126 314.814331,373.537231 
	C315.405853,373.562469 315.997345,373.587708 316.588867,373.612946 
	C316.851654,375.131073 317.114410,376.649200 317.419800,378.413452 
	C320.167969,378.568451 322.897491,378.722382 326.220703,378.909821 
	C325.196014,381.894745 324.306702,384.485382 323.292480,387.444519 
z"/>
<path fill="#F9DEEC" opacity="1.000000" stroke="none" 
	d="
M79.922371,378.493469 
	C82.551811,378.340088 85.181252,378.186707 87.589607,378.450623 
	C88.232124,381.256348 89.095734,383.644745 89.978928,386.019775 
	C89.998520,386.006409 90.039276,385.982117 89.720451,385.712891 
	C88.210945,387.965759 87.020256,390.487885 85.829575,393.010010 
	C84.036247,392.310730 82.242928,391.611450 80.095543,390.449768 
	C80.885483,386.507965 82.029488,383.028595 83.266792,379.265442 
	C81.983124,378.969147 80.952744,378.731293 79.922371,378.493469 
M84.320999,385.453094 
	C83.952148,385.948456 83.583290,386.443787 83.214432,386.939148 
	C83.574112,387.142395 83.933792,387.345612 84.293472,387.548828 
	C84.447197,386.999390 84.600929,386.449982 84.320999,385.453094 
z"/>
<path fill="#F8EAF0" opacity="1.000000" stroke="none" 
	d="
M232.051712,394.947815 
	C232.330048,390.253937 232.817307,385.893829 233.451706,380.216949 
	C235.842087,381.280182 239.672958,382.213470 239.666626,383.120056 
	C239.644043,386.358826 243.064697,391.630432 236.071899,392.212677 
	C236.211090,392.927063 236.350281,393.641418 236.786880,394.550201 
	C235.476410,394.923584 233.868515,395.102570 232.051712,394.947815 
z"/>
<path fill="#922D4E" opacity="1.000000" stroke="none" 
	d="
M79.576462,378.561798 
	C80.952744,378.731293 81.983124,378.969147 83.266792,379.265442 
	C82.029488,383.028595 80.885483,386.507965 79.732071,390.363159 
	C79.722672,390.738953 79.744926,390.766968 79.504807,391.029114 
	C78.173729,392.193451 77.082771,393.095673 75.991821,393.997864 
	C76.048843,393.573761 76.105865,393.149689 76.419960,392.170074 
	C77.052467,390.391876 77.427910,389.169159 77.803345,387.946472 
	C78.572990,385.825653 79.342636,383.704865 80.259636,381.177979 
	C77.327026,381.025940 74.932487,380.901794 71.536621,380.725769 
	C72.011078,378.227722 72.452019,375.906128 73.320831,373.822845 
	C74.318192,376.275696 73.086067,380.122803 77.824806,378.559448 
	C78.293388,378.583008 78.761971,378.606567 79.576462,378.561798 
z"/>
<path fill="#922D4E" opacity="1.000000" stroke="none" 
	d="
M89.959335,386.033173 
	C89.095734,383.644745 88.232124,381.256348 87.699738,378.817688 
	C89.829895,381.030792 91.628845,383.294067 93.770561,385.988586 
	C94.912262,383.126678 95.832542,380.819763 96.752823,378.512878 
	C97.298828,378.701111 97.844841,378.889313 98.390846,379.077545 
	C97.476173,381.849365 96.561493,384.621155 95.378159,388.207123 
	C96.205032,389.497253 97.578987,391.641022 98.952950,393.784760 
	C98.722397,394.055359 98.491844,394.325928 98.261299,394.596527 
	C97.249146,393.881348 96.236992,393.166199 94.979477,391.998840 
	C94.585007,391.231873 94.336357,391.069916 93.988174,391.060760 
	C93.988174,391.060760 94.007256,391.006317 93.910629,390.686523 
	C92.529106,388.922180 91.244217,387.477692 89.959335,386.033173 
z"/>
<path fill="#9C3758" opacity="1.000000" stroke="none" 
	d="
M366.031372,378.973785 
	C364.612793,384.167603 363.194183,389.361420 361.775574,394.555206 
	C361.046539,394.359253 360.317505,394.163300 359.588440,393.967377 
	C360.787842,389.828888 361.987244,385.690430 363.144104,381.698792 
	C360.663910,379.354004 354.382690,383.969238 354.962372,376.408813 
	C354.923523,375.550629 354.970734,375.112610 355.350861,374.253693 
	C356.133423,373.768372 356.583069,373.703979 357.032715,373.639618 
	C357.032715,373.639618 357.224487,374.011597 357.390320,374.459167 
	C357.743042,376.124725 357.929901,377.342743 358.092651,378.403625 
	C360.974030,378.610565 363.502716,378.792175 366.031372,378.973785 
z"/>
<path fill="#922D4E" opacity="1.000000" stroke="none" 
	d="
M337.077209,375.666809 
	C338.005768,376.915680 338.733032,378.410431 339.758789,378.655396 
	C341.593994,379.093628 343.609009,378.778839 346.698303,378.778839 
	C344.228912,384.461334 342.084290,389.396515 339.656830,394.480988 
	C339.373993,394.630280 339.375702,394.673737 339.299744,394.456848 
	C339.223785,394.239990 338.871002,393.995728 338.871002,393.995728 
	C338.891815,393.553253 338.912659,393.110779 339.122711,392.063721 
	C339.630737,390.379944 339.949554,389.300751 340.268341,388.221558 
	C340.268341,388.221558 340.248108,388.050385 340.445801,388.010376 
	C340.820862,387.670898 340.859650,387.354431 340.759796,387.020966 
	C340.954865,386.603088 341.149933,386.185181 341.592407,385.141083 
	C342.193146,383.488342 342.546509,382.461823 343.013184,381.106140 
	C341.445496,381.106140 340.216461,381.106140 338.987457,381.106140 
	C337.704254,380.976685 336.421051,380.847260 334.675903,380.671204 
	C334.675903,378.527527 334.675903,376.461121 335.159790,374.055542 
	C336.086761,373.828644 336.529816,373.940857 336.972870,374.053101 
	C336.985382,374.485260 336.997894,374.917389 337.077209,375.666809 
z"/>
<path fill="#922D4E" opacity="1.000000" stroke="none" 
	d="
M105.195435,378.452881 
	C110.821465,378.255127 112.517494,381.063904 112.132271,385.915100 
	C111.911270,388.698303 112.092224,391.513428 112.092224,394.314148 
	C111.440056,394.323517 110.787888,394.332855 110.135712,394.342224 
	C109.997993,391.946625 109.560631,389.522522 109.785149,387.161377 
	C110.247589,382.298401 108.701881,379.827240 103.452896,380.825531 
	C102.996964,380.912231 102.486107,380.741150 102.007011,380.654999 
	C101.872223,380.630768 101.759674,380.482758 100.777328,379.752625 
	C102.460670,379.222443 103.632492,378.853333 105.195435,378.452881 
z"/>
<path fill="#A24463" opacity="1.000000" stroke="none" 
	d="
M208.392059,380.968170 
	C207.061707,381.032837 206.071777,381.122314 205.135574,380.938354 
	C204.623260,380.837708 204.201736,380.274994 203.739273,379.920624 
	C204.357559,379.549622 204.975845,379.178650 205.845581,378.702026 
	C214.002335,377.718018 215.492203,378.559326 215.997925,385.048401 
	C215.635574,388.815460 215.292923,391.732666 214.950256,394.649841 
	C214.382080,394.303101 213.813919,393.956329 213.172974,392.979004 
	C213.043961,391.893829 212.987732,391.439209 212.931503,390.984619 
	C212.979599,388.622681 213.027695,386.260712 213.037521,383.110016 
	C212.325165,381.897980 211.651077,381.474701 210.976974,381.051453 
	C210.236282,380.993958 209.495605,380.936462 208.392059,380.968170 
z"/>
<path fill="#973F5C" opacity="1.000000" stroke="none" 
	d="
M221.979675,381.071014 
	C221.022614,380.776154 220.065552,380.481293 219.108490,380.186432 
	C219.169769,379.748871 219.231049,379.311279 219.292328,378.873688 
	C221.152344,379.148590 223.012344,379.423462 225.150482,380.330322 
	C225.626373,382.307465 225.824112,383.652649 225.944809,385.438477 
	C225.837357,388.545227 225.806931,391.211334 225.776520,393.877441 
	C223.806564,394.269318 221.836609,394.661224 219.431763,394.595245 
	C219.599426,393.440155 220.246674,392.776031 220.793610,392.037659 
	C221.527649,391.046661 222.184143,389.998230 222.873932,388.974457 
	C222.914444,387.921173 222.954956,386.867920 223.025421,385.048920 
	C222.696823,383.212463 222.338257,382.141754 221.979675,381.071014 
z"/>
<path fill="#FBE3F0" opacity="1.000000" stroke="none" 
	d="
M303.997864,388.195496 
	C304.596161,387.548859 305.152771,387.237183 305.300232,387.154572 
	C303.945984,385.457367 302.623444,383.799866 301.300903,382.142365 
	C301.666351,381.576904 302.031799,381.011414 302.397278,380.445953 
	C304.471405,380.917877 307.991058,380.910522 308.337524,381.955322 
	C309.230286,384.647705 309.181946,387.919647 308.495148,390.710358 
	C308.280487,391.582550 304.829559,391.658264 302.425995,391.992798 
	C302.646698,390.768127 303.301422,389.649292 303.997864,388.195496 
z"/>
<path fill="#FAF0F6" opacity="1.000000" stroke="none" 
	d="
M180.046875,379.019928 
	C178.571289,379.058502 177.095688,379.097107 175.186523,379.229034 
	C174.752945,379.322388 174.763794,379.295319 174.829437,378.889160 
	C174.925125,377.666840 174.955185,376.850708 174.985229,376.034546 
	C175.438354,376.028900 175.891479,376.023254 176.906494,376.282349 
	C181.554642,377.316376 180.846054,374.347229 180.983994,372.038086 
	C183.418030,371.893677 185.852051,371.749298 188.286087,371.604919 
	C188.567352,371.920410 188.848618,372.235901 189.129868,372.551392 
	C187.704407,373.676697 186.278946,374.802002 184.596283,376.130341 
	C185.175034,376.674713 186.029297,377.478210 186.946991,378.631470 
	C187.010422,378.981201 186.989929,379.010468 186.555252,379.007629 
	C184.958984,379.049316 183.797379,379.093781 182.320251,379.026001 
	C181.352097,378.949127 180.699493,378.984528 180.046875,379.019928 
z"/>
<path fill="#9C3758" opacity="1.000000" stroke="none" 
	d="
M413.020050,393.973541 
	C413.026123,391.359711 412.796997,388.708679 413.097107,386.118988 
	C413.607025,381.719055 411.839417,380.107056 407.564697,380.780457 
	C406.346039,380.972412 405.071533,380.809814 403.476532,379.651154 
	C404.477173,379.329773 405.477814,379.008423 406.776184,378.523926 
	C408.297882,378.376099 409.521912,378.391418 411.401855,378.540894 
	C413.150696,379.445679 414.243530,380.216278 415.336365,380.986877 
	C415.343781,381.448120 415.351196,381.909332 415.337738,383.021667 
	C415.396332,384.092896 415.475830,384.513031 415.555328,384.933136 
	C415.514801,385.380707 415.474243,385.828247 415.392883,387.032379 
	C415.315216,389.882721 415.278351,391.976532 415.241516,394.070312 
	C415.025696,394.170471 414.809845,394.270630 414.063385,394.278931 
	C413.369781,394.111847 413.206757,394.036591 413.043732,393.961365 
	C413.043732,393.961365 413.022858,393.963928 413.020050,393.973541 
z"/>
<path fill="#A24463" opacity="1.000000" stroke="none" 
	d="
M270.754608,394.255371 
	C267.641083,389.139587 269.145844,383.902832 269.638092,378.660431 
	C270.370239,378.647705 271.102417,378.635010 271.834564,378.622284 
	C271.597076,383.785065 271.359589,388.947845 270.754608,394.255371 
z"/>
<path fill="#FBE3F0" opacity="1.000000" stroke="none" 
	d="
M180.922394,395.061951 
	C180.895599,395.046021 180.959457,394.776520 181.338531,394.511963 
	C182.126358,392.829468 182.535110,391.411560 183.374023,389.999573 
	C185.799286,389.995422 187.794403,389.985352 189.945862,390.312866 
	C191.080521,391.803101 192.058853,392.955811 193.037186,394.108521 
	C192.408829,394.643829 191.833908,395.537628 191.141129,395.640961 
	C189.629684,395.866302 188.058289,395.689514 186.006409,395.556458 
	C184.002701,395.325623 182.503937,395.215454 181.005188,395.105286 
	C181.005188,395.105286 180.949188,395.077881 180.922394,395.061951 
z"/>
<path fill="#FAF0F6" opacity="1.000000" stroke="none" 
	d="
M366.008301,378.990601 
	C363.502716,378.792175 360.974030,378.610565 358.092651,378.403625 
	C357.929901,377.342743 357.743042,376.124725 357.576660,374.554382 
	C358.289337,373.333008 358.981537,372.464020 359.109589,372.303253 
	C361.632080,373.011292 363.825195,373.626862 366.434113,374.359161 
	C366.377838,374.942505 366.241394,376.357056 366.116394,378.302795 
	C366.127838,378.833984 365.939056,379.040833 365.939056,379.040833 
	C365.939056,379.040833 365.985260,379.007385 366.008301,378.990601 
z"/>
<path fill="#F9DEEC" opacity="1.000000" stroke="none" 
	d="
M303.920532,378.086853 
	C302.825836,378.711273 301.593292,379.029053 299.876434,379.471680 
	C299.876434,381.664948 299.876434,383.904846 299.881195,386.596436 
	C298.781738,387.009796 297.677490,386.971436 296.178223,386.476624 
	C295.818817,383.787994 295.854523,381.555817 295.890228,379.323639 
	C296.369324,378.022583 296.848389,376.721558 297.295715,375.506683 
	C299.735168,376.361633 301.758911,377.070892 303.920532,378.086853 
M297.217285,384.002167 
	C297.871582,382.626862 298.525909,381.251556 299.180206,379.876282 
	C298.678162,379.705383 298.176117,379.534485 297.674072,379.363586 
	C297.475098,380.705475 297.276123,382.047333 297.217285,384.002167 
z"/>
<path fill="#F8EAF0" opacity="1.000000" stroke="none" 
	d="
M226.063446,394.043945 
	C225.806931,391.211334 225.837357,388.545227 226.322983,385.440796 
	C227.786636,384.999451 228.795090,384.996460 229.803528,384.993500 
	C229.942764,387.967987 230.082001,390.942474 230.422852,394.309814 
	C229.199768,394.538605 227.775070,394.374542 226.063446,394.043945 
z"/>
<path fill="#FBE3F0" opacity="1.000000" stroke="none" 
	d="
M222.540085,389.024475 
	C222.184143,389.998230 221.527649,391.046661 220.793610,392.037659 
	C220.246674,392.776031 219.599426,393.440155 219.034958,394.534363 
	C217.743988,395.012085 216.414902,395.092804 215.018051,394.911682 
	C215.292923,391.732666 215.635574,388.815460 216.054489,385.454681 
	C217.782578,386.923737 218.066238,390.882050 222.540085,389.024475 
z"/>
<path fill="#FAF0F6" opacity="1.000000" stroke="none" 
	d="
M337.246521,373.755035 
	C336.529816,373.940857 336.086761,373.828644 335.301514,373.689026 
	C333.802246,372.420166 332.645142,371.178680 331.488068,369.937195 
	C335.639893,370.142334 339.843994,373.214233 343.639404,368.229462 
	C344.019592,368.868774 344.399780,369.508087 344.779968,370.147400 
	C343.996246,371.090271 343.386688,372.483643 342.387756,372.869843 
	C340.910400,373.440979 339.156403,373.296692 337.246521,373.755035 
z"/>
<path fill="#922D4E" opacity="1.000000" stroke="none" 
	d="
M193.089905,393.839630 
	C192.058853,392.955811 191.080521,391.803101 190.129807,389.943909 
	C192.061646,382.842865 191.507278,381.284210 187.099716,380.595032 
	C187.000717,379.861084 186.995316,379.435791 186.989929,379.010468 
	C186.989929,379.010468 187.010422,378.981201 186.996979,378.969421 
	C187.161148,378.923248 187.338776,378.888824 188.140686,378.837372 
	C189.509491,378.811218 190.254044,378.802063 190.998596,378.792938 
	C190.998596,378.792938 191.422974,379.009949 191.660492,379.029236 
	C192.311493,383.408661 192.724960,387.768738 193.220566,392.587738 
	C193.249344,393.221344 193.195969,393.396027 193.089905,393.839630 
z"/>
<path fill="#F9DEEC" opacity="1.000000" stroke="none" 
	d="
M77.870239,378.141876 
	C73.086067,380.122803 74.318192,376.275696 73.604813,373.702667 
	C75.258423,372.576721 77.055931,371.809265 79.784996,370.644073 
	C78.855255,374.165527 78.385460,375.944916 77.870239,378.141876 
z"/>
<path fill="#8B3D58" opacity="1.000000" stroke="none" 
	d="
M351.649719,378.974731 
	C351.973724,384.095551 351.973724,389.112305 351.973724,394.129059 
	C351.211517,394.115448 350.449341,394.101837 349.687134,394.088226 
	C349.687134,389.305054 349.687134,384.521881 349.827942,379.281982 
	C350.421112,378.840393 350.873413,378.855530 351.649719,378.974731 
z"/>
<path fill="#F9DEEC" opacity="1.000000" stroke="none" 
	d="
M89.978928,386.019775 
	C91.244217,387.477692 92.529106,388.922180 93.881851,390.688477 
	C91.791855,390.971039 89.979118,391.147858 90.755104,394.210083 
	C90.885925,394.726379 89.755272,395.562347 89.207458,396.250610 
	C88.801277,395.734863 88.395088,395.219147 88.051971,394.004700 
	C88.756447,390.864716 89.397858,388.423401 90.039276,385.982117 
	C90.039276,385.982117 89.998520,386.006409 89.978928,386.019775 
z"/>
<path fill="#A24463" opacity="1.000000" stroke="none" 
	d="
M136.926804,387.466003 
	C133.923111,384.620300 135.147064,381.695251 135.775513,378.762695 
	C136.478592,378.773743 137.181686,378.784790 137.884781,378.795837 
	C137.689789,381.643219 137.494781,384.490601 136.926804,387.466003 
z"/>
<path fill="#F8EAF0" opacity="1.000000" stroke="none" 
	d="
M180.684967,371.874817 
	C180.846054,374.347229 181.554642,377.316376 177.246338,376.285797 
	C177.024292,373.930634 177.024292,371.836731 177.024292,368.708008 
	C178.653778,370.163910 179.519867,370.937714 180.684967,371.874817 
z"/>
<path fill="#A24463" opacity="1.000000" stroke="none" 
	d="
M295.497253,379.204193 
	C295.854523,381.555817 295.818817,383.787994 295.765503,386.440063 
	C295.154480,387.083130 294.285034,387.674957 294.011932,387.470459 
	C292.045288,385.997742 292.782013,380.757294 295.497253,379.204193 
z"/>
<path fill="#FAF0F6" opacity="1.000000" stroke="none" 
	d="
M357.029053,373.274353 
	C356.583069,373.703979 356.133423,373.768372 355.354614,373.922546 
	C353.035309,372.805267 351.045166,371.598206 349.055023,370.391144 
	C349.203094,370.148254 349.351166,369.905365 349.499237,369.662445 
	C351.790588,369.771179 354.081940,369.879883 356.736725,370.005859 
	C356.801575,370.657990 356.913483,371.783569 357.029053,373.274353 
z"/>
<path fill="#FAF0F6" opacity="1.000000" stroke="none" 
	d="
M229.861359,384.606262 
	C228.795090,384.996460 227.786636,384.999451 226.400024,385.000122 
	C225.824112,383.652649 225.626373,382.307465 225.423157,380.648010 
	C226.364166,379.864899 227.310654,379.396118 228.632324,378.965027 
	C229.311417,380.741455 229.615295,382.480225 229.861359,384.606262 
z"/>
<path fill="#F8EAF0" opacity="1.000000" stroke="none" 
	d="
M174.699844,375.888580 
	C174.955185,376.850708 174.925125,377.666840 174.817474,378.886475 
	C173.069931,379.078125 171.399963,378.866302 169.337585,378.490875 
	C170.449966,376.792145 170.556122,372.297424 174.699844,375.888580 
z"/>
<path fill="#FAF0F6" opacity="1.000000" stroke="none" 
	d="
M181.009827,395.453491 
	C182.503937,395.215454 184.002701,395.325623 185.751343,395.713135 
	C185.237762,397.393097 184.474289,398.795746 183.359497,400.843872 
	C182.435776,398.857727 181.725113,397.329712 181.009827,395.453491 
z"/>
<path fill="#F9DEEC" opacity="1.000000" stroke="none" 
	d="
M75.686493,394.045074 
	C77.082771,393.095673 78.173729,392.193451 79.510925,391.045654 
	C79.169220,392.643982 78.698875,394.544403 77.868240,396.271606 
	C77.741676,396.534790 75.946373,395.995422 74.922913,395.827271 
	C75.075661,395.248932 75.228409,394.670624 75.686493,394.045074 
z"/>
<path fill="#922D4E" opacity="1.000000" stroke="none" 
	d="
M89.720444,385.712891 
	C89.397858,388.423401 88.756447,390.864716 88.066162,393.686005 
	C87.370316,393.939972 86.723343,393.813904 85.952972,393.348938 
	C87.020256,390.487885 88.210945,387.965759 89.720444,385.712891 
z"/>
<path fill="#F8EAF0" opacity="1.000000" stroke="none" 
	d="
M243.258377,386.951172 
	C242.746658,385.377380 242.574692,383.757172 242.403198,381.731567 
	C243.057281,380.863373 243.710861,380.400543 244.364456,379.937744 
	C244.746689,380.024719 245.128906,380.111694 245.511124,380.198700 
	C244.873459,382.434052 244.235794,384.669373 243.258377,386.951172 
z"/>
<path fill="#F9DEEC" opacity="1.000000" stroke="none" 
	d="
M415.589325,393.965820 
	C415.278351,391.976532 415.315216,389.882721 415.482483,387.359192 
	C415.720978,389.240051 415.829071,391.550690 415.589325,393.965820 
z"/>
<path fill="#FAF0F6" opacity="1.000000" stroke="none" 
	d="
M338.993530,381.502991 
	C340.216461,381.106140 341.445496,381.106140 343.013184,381.106140 
	C342.546509,382.461823 342.193146,383.488342 341.666809,384.802704 
	C340.662384,384.026978 339.830994,382.963409 338.993530,381.502991 
z"/>
<path fill="#F9DEEC" opacity="1.000000" stroke="none" 
	d="
M415.547882,380.745544 
	C414.243530,380.216278 413.150696,379.445679 411.763000,378.467499 
	C413.019836,377.865997 414.571533,377.472076 416.762390,376.915894 
	C416.319977,378.498718 416.039673,379.501465 415.547882,380.745544 
z"/>
<path fill="#FAF0F6" opacity="1.000000" stroke="none" 
	d="
M368.848511,369.040527 
	C369.610046,369.423553 370.016754,369.792694 370.423462,370.161865 
	C369.211823,370.450317 368.000183,370.738800 366.788544,371.027283 
	C366.675262,370.675873 366.561981,370.324463 366.448669,369.973053 
	C367.130341,369.657593 367.812012,369.342102 368.848511,369.040527 
z"/>
<path fill="#FAF0F6" opacity="1.000000" stroke="none" 
	d="
M339.919647,388.185242 
	C339.949554,389.300751 339.630737,390.379944 339.102142,391.732056 
	C336.723267,390.462128 336.788605,390.090729 339.919647,388.185242 
z"/>
<path fill="#F9DEEC" opacity="1.000000" stroke="none" 
	d="
M77.537224,387.844696 
	C77.427910,389.169159 77.052467,390.391876 76.454956,391.848846 
	C74.227768,390.073975 74.884117,388.701447 77.537224,387.844696 
z"/>
<path fill="#FAF0F6" opacity="1.000000" stroke="none" 
	d="
M372.801910,399.734863 
	C372.011841,399.933838 371.270050,399.809235 370.528229,399.684601 
	C370.603912,399.266479 370.679626,398.848328 370.755310,398.430206 
	C371.453583,398.757233 372.151855,399.084259 372.801910,399.734863 
z"/>
<path fill="#F8EAF0" opacity="1.000000" stroke="none" 
	d="
M238.985718,395.083740 
	C239.436615,394.530304 239.935349,394.308838 240.706787,394.018860 
	C240.740707,394.794525 240.501923,395.638672 240.263153,396.482788 
	C239.853302,396.127075 239.443451,395.771393 238.985718,395.083740 
z"/>
<path fill="#FAF0F6" opacity="1.000000" stroke="none" 
	d="
M392.000000,374.000000 
	C392.906708,373.812958 393.813446,373.625885 394.860168,373.719055 
	C395.000153,373.999268 395.000000,374.000000 394.624634,373.997589 
	C393.499481,373.996796 392.749756,373.998383 392.000000,374.000000 
z"/>
<path fill="#FBE3F0" opacity="1.000000" stroke="none" 
	d="
M221.985474,381.389496 
	C222.338257,382.141754 222.696823,383.212463 222.968491,384.656677 
	C222.584824,383.922760 222.288055,382.815369 221.985474,381.389496 
z"/>
<path fill="#FBE3F0" opacity="1.000000" stroke="none" 
	d="
M212.643784,391.033661 
	C212.987732,391.439209 213.043961,391.893829 213.010406,392.682953 
	C212.424927,392.692505 211.929245,392.367523 211.433563,392.042542 
	C211.741074,391.722595 212.048569,391.402649 212.643784,391.033661 
z"/>
<path fill="#FBE3F0" opacity="1.000000" stroke="none" 
	d="
M211.026505,381.358521 
	C211.651077,381.474701 212.325165,381.897980 212.952652,382.674988 
	C212.296051,382.574371 211.686035,382.119965 211.026505,381.358521 
z"/>
<path fill="#FBE3F0" opacity="1.000000" stroke="none" 
	d="
M190.807465,378.577118 
	C190.254044,378.802063 189.509491,378.811218 188.398590,378.752838 
	C188.893585,378.577332 189.754959,378.469299 190.807465,378.577118 
z"/>
<path fill="#F8EAF0" opacity="1.000000" stroke="none" 
	d="
M166.694382,378.330994 
	C166.193817,378.617737 165.473663,378.743408 164.387115,378.806396 
	C164.838745,378.552429 165.656769,378.361206 166.694382,378.330994 
z"/>
<path fill="#F8EAF0" opacity="1.000000" stroke="none" 
	d="
M165.999573,398.999390 
	C165.878174,399.427551 165.757217,399.856354 165.636261,400.285126 
	C165.622314,399.938934 165.608383,399.592712 165.797623,399.123474 
	C166.000809,399.000458 166.000000,399.000000 165.999573,398.999390 
z"/>
<path fill="#F9DEEC" opacity="1.000000" stroke="none" 
	d="
M415.699036,384.770325 
	C415.475830,384.513031 415.396332,384.092896 415.411438,383.360413 
	C415.618256,383.567902 415.730469,384.087708 415.699036,384.770325 
z"/>
<path fill="#FAF0F6" opacity="1.000000" stroke="none" 
	d="
M338.615601,394.022705 
	C338.871002,393.995728 339.223785,394.239990 339.286438,394.444458 
	C338.845337,394.632416 338.341553,394.615906 337.837799,394.599426 
	C338.011963,394.416199 338.186096,394.232971 338.615601,394.022705 
z"/>
<path fill="#FAF0F6" opacity="1.000000" stroke="none" 
	d="
M409.998779,400.000854 
	C410.120361,400.143524 410.243195,400.285370 410.366028,400.427185 
	C410.280121,400.377228 410.194183,400.327240 410.054932,400.137390 
	C410.001648,399.997559 410.000000,400.000000 409.998779,400.000854 
z"/>
<path fill="#F9DEEC" opacity="1.000000" stroke="none" 
	d="
M85.471100,396.452026 
	C85.521950,396.422150 85.420258,396.481873 85.471100,396.452026 
z"/>
<path fill="#FAF0F6" opacity="1.000000" stroke="none" 
	d="
M352.447876,399.533569 
	C352.413361,399.476318 352.482391,399.590851 352.447876,399.533569 
z"/>
<path fill="#F9DEEC" opacity="1.000000" stroke="none" 
	d="
M413.054016,394.139893 
	C413.206757,394.036591 413.369781,394.111847 413.720947,394.379730 
	C413.627502,394.487732 413.345886,394.403046 413.054016,394.139893 
z"/>
<path fill="#F8EAF0" opacity="1.000000" stroke="none" 
	d="
M242.447449,391.792542 
	C242.288040,391.620056 242.330078,391.250488 242.583710,390.689209 
	C242.746506,390.863464 242.697708,391.229462 242.447449,391.792542 
z"/>
<path fill="#F9DEEC" opacity="1.000000" stroke="none" 
	d="
M94.036659,391.272766 
	C94.336357,391.069916 94.585007,391.231873 94.742096,391.779724 
	C94.449623,391.936035 94.227982,391.760010 94.036659,391.272766 
z"/>
<path fill="#FAF0F6" opacity="1.000000" stroke="none" 
	d="
M340.573853,387.168640 
	C340.859650,387.354431 340.820862,387.670898 340.433716,388.095703 
	C340.118011,387.890320 340.172668,387.588745 340.573853,387.168640 
z"/>
<path fill="#9C3758" opacity="1.000000" stroke="none" 
	d="
M366.041626,379.004150 
	C365.939056,379.040833 366.127838,378.833984 366.159912,378.698303 
	C366.192017,378.562653 366.176819,378.525360 366.174683,378.532715 
	C366.172516,378.540070 366.144165,378.967499 366.041626,379.004150 
z"/>
<path fill="#F9DEEC" opacity="1.000000" stroke="none" 
	d="
M308.933350,378.702576 
	C308.837494,378.885803 308.659943,378.915314 308.241486,378.822693 
	C308.284271,378.650024 308.567932,378.599426 308.933350,378.702576 
z"/>
<path fill="#FAF0F6" opacity="1.000000" stroke="none" 
	d="
M228.467041,377.448547 
	C228.523834,377.414551 228.410248,377.482574 228.467041,377.448547 
z"/>
<path fill="#FDFDFD" opacity="1.000000" stroke="none" 
	d="
M369.038116,328.822937 
	C368.049438,333.445984 367.525360,337.795746 365.979736,341.745789 
	C363.038208,349.263367 356.756775,352.940735 349.070801,353.857819 
	C344.351532,354.420929 339.510284,353.961975 334.326050,353.961975 
	C334.326050,337.441925 334.326050,321.085114 334.318909,304.726624 
	C357.116577,301.700134 369.279480,306.516571 369.038116,328.822937 
z"/>
<path fill="#F6F6F6" opacity="1.000000" stroke="none" 
	d="
M273.832275,320.157013 
	C275.208008,324.625061 276.458893,328.715027 277.853607,333.275269 
	C272.044525,333.275269 266.559723,333.275269 260.284668,333.275269 
	C263.107727,324.234253 265.781860,315.670197 268.908295,305.657562 
	C270.812042,311.259277 272.259766,315.519104 273.832275,320.157013 
z"/>
<path fill="#9C3758" opacity="1.000000" stroke="none" 
	d="
M389.036346,379.938416 
	C392.247040,380.037323 395.953064,379.176849 398.528351,380.506409 
	C401.075897,381.821655 399.914124,390.277924 397.028290,393.470978 
	C397.028290,390.927002 396.821075,388.899170 397.069519,386.928802 
	C397.669128,382.173401 395.951904,380.005798 390.416687,381.058014 
	C389.713684,381.197540 389.526337,381.288239 389.536530,381.340454 
	C389.579346,381.560028 389.681152,381.768127 389.761414,381.980438 
	C389.734406,383.367645 389.707397,384.754822 389.322266,386.563660 
	C388.398804,386.983551 387.833496,386.981781 387.268250,386.980042 
	C387.172943,385.314606 387.077637,383.649139 387.111816,381.285583 
	C387.839600,380.371094 388.437958,380.154755 389.036346,379.938416 
z"/>
<path fill="#A24463" opacity="1.000000" stroke="none" 
	d="
M387.176575,387.409363 
	C387.833496,386.981781 388.398804,386.983551 389.246582,386.972687 
	C389.060547,389.379303 391.781219,392.547241 387.433167,394.055298 
	C387.025574,393.959167 386.996094,393.995422 387.016785,393.986450 
	C387.053284,391.931244 387.069122,389.885010 387.176575,387.409363 
z"/>
<path fill="#FFFEFE" opacity="1.000000" stroke="none" 
	d="
M391.900177,374.284729 
	C392.749756,373.998383 393.499481,373.996796 394.624115,373.997986 
	C394.301727,374.658691 393.604492,375.316620 392.907227,375.974487 
	C392.538239,375.506165 392.169312,375.037811 391.900177,374.284729 
z"/>
<path fill="#A24463" opacity="1.000000" stroke="none" 
	d="
M388.806763,379.674713 
	C388.437958,380.154755 387.839600,380.371094 387.076477,380.869415 
	C386.737030,380.487183 386.562317,379.822937 386.387604,379.158722 
	C387.117462,379.242828 387.847321,379.326935 388.806763,379.674713 
z"/>
<path fill="#A24463" opacity="1.000000" stroke="none" 
	d="
M389.903870,381.770264 
	C389.681152,381.768127 389.579346,381.560028 389.536530,381.340454 
	C389.526337,381.288239 389.713684,381.197540 389.992401,381.096619 
	C390.131866,381.232513 390.089081,381.396271 389.903870,381.770264 
z"/>
<path fill="#FFFEFE" opacity="1.000000" stroke="none" 
	d="
M346.468445,394.608002 
	C346.352051,395.059784 346.067413,395.336945 345.764618,395.592682 
	C345.756836,395.599243 345.550629,395.370880 345.437012,395.252075 
	C345.723938,394.978210 346.010864,394.704376 346.468445,394.608002 
z"/>
<path fill="#F68025" opacity="1.000000" stroke="none" 
	d="
M348.749756,199.622650 
	C349.326416,209.078537 344.388092,216.489166 335.686157,219.126877 
	C333.716705,219.723877 331.141510,219.450104 329.174957,218.705811 
	C324.379303,216.890778 319.579132,215.398590 315.004303,212.539612 
	C308.812866,208.670364 303.328613,196.731140 305.051392,189.608658 
	C306.597656,183.216080 314.645691,179.864243 319.637726,183.646225 
	C327.010040,176.319244 339.946442,184.299210 344.651672,191.522934 
	C346.218262,193.928101 347.306000,196.645157 348.749756,199.622650 
M335.213104,189.933502 
	C335.601257,188.821045 335.989410,187.708588 336.377594,186.596146 
	C334.030914,186.742676 331.684235,186.889206 329.337555,187.035736 
	C329.319366,187.701691 329.301208,188.367645 329.283051,189.033615 
	C330.988831,189.351700 332.694580,189.669785 335.213104,189.933502 
z"/>
<path fill="#A24463" opacity="1.000000" stroke="none" 
	d="
M182.943863,389.993652 
	C182.535110,391.411560 182.126358,392.829468 181.353180,394.374207 
	C180.665482,389.650208 180.342209,384.799377 180.032898,379.484222 
	C180.699493,378.984528 181.352097,378.949127 182.346054,379.445404 
	C182.781906,381.657135 182.876434,383.337189 182.884857,385.425537 
	C182.847107,387.220459 182.895477,388.607056 182.943863,389.993652 
z"/>
<path fill="#FFFEFE" opacity="1.000000" stroke="none" 
	d="
M167.134186,387.982819 
	C167.089432,386.923004 167.044678,385.863190 167.066513,384.409973 
	C173.329102,384.223694 174.102448,386.151581 171.291519,394.473114 
	C170.191208,393.651611 169.103088,392.839203 167.597473,391.958252 
	C167.124481,391.485321 167.069016,391.080933 167.387955,390.315674 
	C167.552979,389.297485 167.343597,388.640137 167.134186,387.982819 
z"/>
<path fill="#F9DEEC" opacity="1.000000" stroke="none" 
	d="
M372.811066,390.851624 
	C372.448395,388.543945 372.236420,386.585876 372.148315,384.622284 
	C372.018372,381.726379 373.548645,380.441193 376.363617,380.363281 
	C379.481995,380.277039 380.516266,382.190033 380.307220,384.786011 
	C380.117767,387.138611 379.895142,389.796021 378.653564,391.612671 
	C378.119659,392.393860 374.975464,391.391052 372.811066,390.851624 
z"/>
<path fill="#F8EAF0" opacity="1.000000" stroke="none" 
	d="
M167.048264,388.236877 
	C167.343597,388.640137 167.552979,389.297485 167.433228,390.009247 
	C167.056839,389.539429 167.009583,389.015167 167.048264,388.236877 
z"/>
<path fill="#FFFEFE" opacity="1.000000" stroke="none" 
	d="
M84.537827,385.676819 
	C84.600929,386.449982 84.447197,386.999390 84.293472,387.548828 
	C83.933792,387.345612 83.574112,387.142395 83.214432,386.939148 
	C83.583290,386.443787 83.952148,385.948456 84.537827,385.676819 
z"/>
<path fill="#FBE3F0" opacity="1.000000" stroke="none" 
	d="
M182.970963,385.017242 
	C182.876434,383.337189 182.781906,381.657135 182.661591,379.557678 
	C183.797379,379.093781 184.958984,379.049316 186.555252,379.007629 
	C186.995316,379.435791 187.000717,379.861084 186.771500,380.643311 
	C185.348251,382.339264 184.159607,383.678253 182.970963,385.017242 
z"/>
<path fill="#FAF0F6" opacity="1.000000" stroke="none" 
	d="
M182.884857,385.425537 
	C184.159607,383.678253 185.348251,382.339264 186.865112,380.951965 
	C191.507278,381.284210 192.061646,382.842865 189.973465,389.606384 
	C187.794403,389.985352 185.799286,389.995422 183.374023,389.999573 
	C182.895477,388.607056 182.847107,387.220459 182.884857,385.425537 
z"/>
<path fill="#FFFEFE" opacity="1.000000" stroke="none" 
	d="
M297.147217,383.695679 
	C297.276123,382.047333 297.475098,380.705475 297.674072,379.363586 
	C298.176117,379.534485 298.678162,379.705383 299.180206,379.876282 
	C298.525909,381.251556 297.871582,382.626862 297.147217,383.695679 
z"/>
<path fill="#F2822D" opacity="1.000000" stroke="none" 
	d="
M334.806702,189.960693 
	C332.694580,189.669785 330.988831,189.351700 329.283051,189.033615 
	C329.301208,188.367645 329.319366,187.701691 329.337555,187.035736 
	C331.684235,186.889206 334.030914,186.742676 336.377594,186.596146 
	C335.989410,187.708588 335.601257,188.821045 334.806702,189.960693 
z"/>
</svg>